<?xml version="1.0" encoding="UTF-8" standalone="no"?>
<!-- This is a Stata 17.0 generated SVG file (http://www.stata.com) -->

<svg version="1.1" width="5.500in" height="4.000in" viewBox="0 0 3960 2880" xmlns="http://www.w3.org/2000/svg" xmlns:xlink="http://www.w3.org/1999/xlink">
	<desc>Stata Graph - Graph</desc>
	<rect x="0" y="0" width="3960" height="2880" style="fill:#EAF2F3;stroke:none"/>
	<rect x="0.00" y="0.00" width="3959.88" height="2880.00" style="fill:#EAF2F3"/>
	<rect x="2.88" y="2.88" width="3954.12" height="2874.24" style="fill:none;stroke:#EAF2F3;stroke-width:5.76"/>
	<rect x="429.91" y="419.90" width="3429.11" height="1954.82" style="fill:#FFFFFF"/>
	<rect x="432.79" y="422.78" width="3423.35" height="1949.06" style="fill:none;stroke:#FFFFFF;stroke-width:5.76"/>
	<line x1="429.91" y1="2311.35" x2="3859.02" y2="2311.35" style="stroke:#EAF2F3;stroke-width:8.64"/>
	<line x1="429.91" y1="1869.67" x2="3859.02" y2="1869.67" style="stroke:#EAF2F3;stroke-width:8.64"/>
	<line x1="429.91" y1="1428.00" x2="3859.02" y2="1428.00" style="stroke:#EAF2F3;stroke-width:8.64"/>
	<line x1="429.91" y1="986.44" x2="3859.02" y2="986.44" style="stroke:#EAF2F3;stroke-width:8.64"/>
	<line x1="429.91" y1="544.76" x2="3859.02" y2="544.76" style="stroke:#EAF2F3;stroke-width:8.64"/>
	<path d=" M493.27 2311.35 L493.27 2311.35 L493.27 2311.35 L493.27 2311.35 L493.27 2311.35 L493.27 2311.35 L493.27 2311.35 L493.27 2311.35 L493.27 2311.35 L528.66 2311.35 L528.66 2310.48 L546.36 2310.48 L546.36 2309.74 L555.27 2309.74 L555.27 2308.88 L572.96 2308.88 L572.96 2308.01 L581.75 2308.01 L581.75 2306.40 L590.66 2306.40 L590.66 2303.06 L608.36 2303.06 L608.36 2302.19 L617.14 2302.19 L617.14 2299.72 L634.96 2299.72 L634.96 2298.85 L643.75 2298.85 L643.75 2296.38 L652.66 2296.38 L652.66 2293.78 L661.44 2293.78 L661.44 2293.04 L679.14 2293.04 L679.14 2292.17 L688.05 2292.17 L688.05 2291.30 L696.84 2291.30 L696.84 2290.44 L705.75 2290.44 L705.75 2289.69 L714.53 2289.69 L714.53 2287.96 L732.35 2287.96 L732.35 2285.49 L741.14 2285.49 L741.14 2284.62 L767.75 2284.62 L767.75 2283.75 L776.53 2283.75 L776.53 2283.01 L785.44 2283.01 L785.44 2278.80 L794.23 2278.80 L794.23 2277.94 L803.14 2277.94 L803.14 2277.07 L838.53 2277.07 L838.53 2275.46 L847.44 2275.46 L847.44 2272.86 L856.23 2272.86 L856.23 2271.25 L865.14 2271.25 L865.14 2269.52 L873.92 2269.52 L873.92 2267.91 L882.83 2267.91 L882.83 2267.05 L891.62 2267.05 L891.62 2263.71 L900.53 2263.71 L900.53 2262.84 L909.32 2262.84 L909.32 2259.50 L918.23 2259.50 L918.23 2257.89 L927.01 2257.89 L927.01 2256.16 L944.83 2256.16 L944.83 2255.41 L953.62 2255.41 L953.62 2252.82 L962.53 2252.82 L962.53 2251.21 L971.31 2251.21 L971.31 2247.87 L980.22 2247.87 L980.22 2244.52 L989.01 2244.52 L989.01 2241.18 L1015.62 2241.18 L1015.62 2240.32 L1024.40 2240.32 L1024.40 2237.84 L1033.31 2237.84 L1033.31 2236.11 L1042.22 2236.11 L1042.22 2235.37 L1051.01 2235.37 L1051.01 2232.77 L1068.71 2232.77 L1068.71 2230.29 L1077.62 2230.29 L1077.62 2228.68 L1086.40 2228.68 L1086.40 2227.82 L1113.01 2227.82 L1113.01 2226.95 L1121.79 2226.95 L1121.79 2226.08 L1130.70 2226.08 L1130.70 2224.48 L1139.61 2224.48 L1139.61 2222.74 L1148.40 2222.74 L1148.40 2222.00 L1157.31 2222.00 L1157.31 2221.13 L1166.10 2221.13 L1166.10 2219.40 L1175.01 2219.40 L1175.01 2217.79 L1183.79 2217.79 L1183.79 2215.19 L1192.70 2215.19 L1192.70 2212.72 L1201.49 2212.72 L1201.49 2209.38 L1210.40 2209.38 L1210.40 2208.51 L1219.19 2208.51 L1219.19 2204.43 L1237.01 2204.43 L1237.01 2201.83 L1254.70 2201.83 L1254.70 2200.22 L1263.49 2200.22 L1263.49 2197.74 L1272.40 2197.74 L1272.40 2195.15 L1281.18 2195.15 L1281.18 2194.40 L1290.09 2194.40 L1290.09 2192.67 L1298.88 2192.67 L1298.88 2190.20 L1307.79 2190.20 L1307.79 2188.46 L1316.58 2188.46 L1316.58 2185.12 L1325.49 2185.12 L1325.49 2183.51 L1343.18 2183.51 L1343.18 2181.78 L1352.09 2181.78 L1352.09 2178.44 L1369.79 2178.44 L1369.79 2176.83 L1378.58 2176.83 L1378.58 2175.96 L1387.49 2175.96 L1387.49 2175.10 L1396.27 2175.10 L1396.27 2171.01 L1405.18 2171.01 L1405.18 2167.67 L1413.97 2167.67 L1413.97 2164.33 L1422.88 2164.33 L1422.88 2162.60 L1431.79 2162.60 L1431.79 2159.26 L1440.57 2159.26 L1440.57 2154.18 L1449.48 2154.18 L1449.48 2153.44 L1458.27 2153.44 L1458.27 2151.71 L1467.18 2151.71 L1467.18 2149.23 L1475.97 2149.23 L1475.97 2147.50 L1493.66 2147.50 L1493.66 2145.89 L1502.57 2145.89 L1502.57 2142.55 L1511.36 2142.55 L1511.36 2140.08 L1520.27 2140.08 L1520.27 2137.48 L1529.18 2137.48 L1529.18 2136.73 L1537.97 2136.73 L1537.97 2135.00 L1546.88 2135.00 L1546.88 2133.39 L1555.66 2133.39 L1555.66 2130.79 L1564.57 2130.79 L1564.57 2129.19 L1573.36 2129.19 L1573.36 2126.71 L1582.27 2126.71 L1582.27 2124.11 L1591.05 2124.11 L1591.05 2123.37 L1599.96 2123.37 L1599.96 2121.64 L1608.75 2121.64 L1608.75 2120.03 L1617.66 2120.03 L1617.66 2118.29 L1626.57 2118.29 L1626.57 2116.69 L1635.36 2116.69 L1635.36 2112.48 L1644.27 2112.48 L1644.27 2110.75 L1653.05 2110.75 L1653.05 2107.40 L1661.96 2107.40 L1661.96 2104.93 L1670.75 2104.93 L1670.75 2104.06 L1679.66 2104.06 L1679.66 2103.32 L1688.45 2103.32 L1688.45 2102.45 L1697.36 2102.45 L1697.36 2100.72 L1706.14 2100.72 L1706.14 2099.11 L1715.05 2099.11 L1715.05 2098.25 L1723.96 2098.25 L1723.96 2096.51 L1732.75 2096.51 L1732.75 2094.91 L1741.66 2094.91 L1741.66 2089.83 L1750.44 2089.83 L1750.44 2088.22 L1759.35 2088.22 L1759.35 2084.02 L1768.14 2084.02 L1768.14 2082.41 L1777.05 2082.41 L1777.05 2080.67 L1785.84 2080.67 L1785.84 2076.47 L1794.75 2076.47 L1794.75 2073.99 L1803.53 2073.99 L1803.53 2071.52 L1812.44 2071.52 L1812.44 2066.44 L1821.35 2066.44 L1821.35 2064.83 L1830.14 2064.83 L1830.14 2062.36 L1839.05 2062.36 L1839.05 2060.63 L1856.75 2060.63 L1856.75 2059.76 L1865.53 2059.76 L1865.53 2059.02 L1874.44 2059.02 L1874.44 2053.94 L1892.14 2053.94 L1892.14 2052.33 L1900.92 2052.33 L1900.92 2047.26 L1909.83 2047.26 L1909.83 2045.65 L1918.74 2045.65 L1918.74 2042.19 L1927.53 2042.19 L1927.53 2041.44 L1936.44 2041.44 L1936.44 2040.58 L1945.23 2040.58 L1945.23 2039.71 L1954.14 2039.71 L1954.14 2038.84 L1962.92 2038.84 L1962.92 2034.76 L1980.62 2034.76 L1980.62 2033.89 L1989.53 2033.89 L1989.53 2031.42 L2016.14 2031.42 L2016.14 2028.08 L2024.92 2028.08 L2024.92 2025.48 L2033.83 2025.48 L2033.83 2023.87 L2042.62 2023.87 L2042.62 2018.80 L2051.53 2018.80 L2051.53 2015.46 L2060.31 2015.46 L2060.31 2013.85 L2069.22 2013.85 L2069.22 2012.98 L2078.01 2012.98 L2078.01 2009.64 L2086.92 2009.64 L2086.92 2008.77 L2095.71 2008.77 L2095.71 2008.03 L2104.62 2008.03 L2104.62 2004.69 L2113.40 2004.69 L2113.40 2002.96 L2131.22 2002.96 L2131.22 2002.09 L2140.01 2002.09 L2140.01 1999.61 L2148.92 1999.61 L2148.92 1997.14 L2157.71 1997.14 L2157.71 1996.27 L2175.40 1996.27 L2175.40 1995.41 L2184.31 1995.41 L2184.31 1992.93 L2193.10 1992.93 L2193.10 1990.46 L2202.01 1990.46 L2202.01 1989.59 L2219.70 1989.59 L2219.70 1987.12 L2228.61 1987.12 L2228.61 1982.91 L2237.40 1982.91 L2237.40 1981.18 L2246.31 1981.18 L2246.31 1980.43 L2264.01 1980.43 L2264.01 1978.70 L2272.79 1978.70 L2272.79 1977.09 L2281.70 1977.09 L2281.70 1972.88 L2290.49 1972.88 L2290.49 1972.02 L2299.40 1972.02 L2299.40 1969.54 L2308.19 1969.54 L2308.19 1968.68 L2317.09 1968.68 L2317.09 1967.81 L2326.01 1967.81 L2326.01 1967.07 L2334.79 1967.07 L2334.79 1963.73 L2343.70 1963.73 L2343.70 1961.99 L2352.49 1961.99 L2352.49 1960.39 L2370.18 1960.39 L2370.18 1958.65 L2379.09 1958.65 L2379.09 1957.79 L2387.88 1957.79 L2387.88 1954.44 L2396.79 1954.44 L2396.79 1952.84 L2414.49 1952.84 L2414.49 1951.10 L2423.40 1951.10 L2423.40 1949.49 L2458.79 1949.49 L2458.79 1948.63 L2467.57 1948.63 L2467.57 1947.02 L2476.49 1947.02 L2476.49 1942.81 L2485.27 1942.81 L2485.27 1941.95 L2502.97 1941.95 L2502.97 1939.47 L2511.88 1939.47 L2511.88 1937.74 L2520.79 1937.74 L2520.79 1935.26 L2529.57 1935.26 L2529.57 1931.92 L2538.48 1931.92 L2538.48 1930.31 L2547.27 1930.31 L2547.27 1929.45 L2556.18 1929.45 L2556.18 1926.11 L2564.97 1926.11 L2564.97 1924.37 L2573.88 1924.37 L2573.88 1922.76 L2582.66 1922.76 L2582.66 1921.03 L2591.57 1921.03 L2591.57 1918.56 L2600.36 1918.56 L2600.36 1916.82 L2609.27 1916.82 L2609.27 1912.74 L2618.18 1912.74 L2618.18 1910.14 L2626.97 1910.14 L2626.97 1907.67 L2635.88 1907.67 L2635.88 1906.80 L2644.66 1906.80 L2644.66 1905.19 L2653.57 1905.19 L2653.57 1904.32 L2662.36 1904.32 L2662.36 1900.98 L2671.27 1900.98 L2671.27 1898.51 L2680.05 1898.51 L2680.05 1894.30 L2688.96 1894.30 L2688.96 1891.83 L2697.75 1891.83 L2697.75 1890.09 L2706.66 1890.09 L2706.66 1887.62 L2715.57 1887.62 L2715.57 1884.28 L2724.36 1884.28 L2724.36 1883.41 L2733.27 1883.41 L2733.27 1880.94 L2742.05 1880.94 L2742.05 1877.59 L2750.96 1877.59 L2750.96 1875.12 L2759.75 1875.12 L2759.75 1871.78 L2768.66 1871.78 L2768.66 1867.57 L2777.45 1867.57 L2777.45 1862.50 L2795.14 1862.50 L2795.14 1861.75 L2804.05 1861.75 L2804.05 1860.89 L2812.96 1860.89 L2812.96 1860.02 L2821.75 1860.02 L2821.75 1857.55 L2830.66 1857.55 L2830.66 1856.68 L2839.44 1856.68 L2839.44 1855.07 L2848.35 1855.07 L2848.35 1852.47 L2866.05 1852.47 L2866.05 1851.73 L2874.84 1851.73 L2874.84 1850.86 L2883.75 1850.86 L2883.75 1849.13 L2892.53 1849.13 L2892.53 1847.52 L2901.44 1847.52 L2901.44 1845.79 L2910.35 1845.79 L2910.35 1842.45 L2919.14 1842.45 L2919.14 1838.36 L2928.05 1838.36 L2928.05 1837.50 L2936.84 1837.50 L2936.84 1832.42 L2945.75 1832.42 L2945.75 1828.34 L2954.53 1828.34 L2954.53 1825.74 L2963.44 1825.74 L2963.44 1825.00 L2972.23 1825.00 L2972.23 1820.79 L2981.14 1820.79 L2981.14 1817.45 L2989.92 1817.45 L2989.92 1816.58 L2998.83 1816.58 L2998.83 1813.24 L3007.74 1813.24 L3007.74 1810.77 L3016.53 1810.77 L3016.53 1807.43 L3025.44 1807.43 L3025.44 1804.08 L3034.23 1804.08 L3034.23 1800.74 L3043.14 1800.74 L3043.14 1799.01 L3051.92 1799.01 L3051.92 1797.40 L3060.83 1797.40 L3060.83 1796.53 L3069.62 1796.53 L3069.62 1795.67 L3078.53 1795.67 L3078.53 1792.33 L3087.32 1792.33 L3087.32 1789.85 L3096.23 1789.85 L3096.23 1786.51 L3113.92 1786.51 L3113.92 1781.44 L3122.83 1781.44 L3122.83 1778.10 L3131.62 1778.10 L3131.62 1776.49 L3149.31 1776.49 L3149.31 1773.15 L3158.22 1773.15 L3158.22 1770.55 L3167.01 1770.55 L3167.01 1768.94 L3175.92 1768.94 L3175.92 1765.60 L3184.71 1765.60 L3184.71 1764.73 L3193.62 1764.73 L3193.62 1762.13 L3202.53 1762.13 L3202.53 1759.53 L3211.31 1759.53 L3211.31 1756.07 L3220.22 1756.07 L3220.22 1754.33 L3229.01 1754.33 L3229.01 1750.75 L3237.92 1750.75 L3237.92 1747.90 L3246.71 1747.90 L3246.71 1747.90 L3255.62 1747.90 L3255.62 1747.90 L3264.40 1747.90 L3264.40 1744.06 L3273.31 1744.06 L3273.31 1741.22 L3282.10 1741.22 L3282.10 1739.24 L3291.01 1739.24 L3291.01 1738.25 L3299.79 1738.25 L3299.79 1733.17 L3308.70 1733.17 L3308.70 1733.17 L3317.61 1733.17 L3317.61 1731.07 L3326.40 1731.07 L3326.40 1729.96 L3335.31 1729.96 L3335.31 1728.84 L3344.10 1728.84 L3344.10 1726.49 L3353.01 1726.49 L3353.01 1725.38 L3361.79 1725.38 L3361.79 1723.03 L3370.70 1723.03 L3370.70 1723.03 L3379.49 1723.03 L3379.49 1721.79 L3388.40 1721.79 L3388.40 1719.19 L3397.19 1719.19 L3397.19 1719.19 L3406.10 1719.19 L3406.10 1716.59 L3415.01 1716.59 L3415.01 1716.59 L3423.79 1716.59 L3423.79 1709.78 L3432.70 1709.78 L3432.70 1702.85 L3441.49 1702.85 L3441.49 1701.37 L3450.40 1701.37 L3450.40 1701.37 L3459.18 1701.37 L3459.18 1695.30 L3468.09 1695.30 L3468.09 1695.30 L3476.88 1695.30 L3476.88 1692.09 L3485.79 1692.09 L3485.79 1688.75 L3494.58 1688.75 L3494.58 1687.01 L3503.49 1687.01 L3503.49 1680.08 L3512.40 1680.08 L3512.40 1676.49 L3521.18 1676.49 L3521.18 1670.92 L3530.09 1670.92 L3530.09 1670.92 L3538.88 1670.92 L3538.88 1670.92 L3547.79 1670.92 L3547.79 1670.92 L3556.58 1670.92 L3556.58 1668.82 L3565.49 1668.82 L3565.49 1666.59 L3574.27 1666.59 L3574.27 1666.59 L3583.18 1666.59 L3583.18 1666.59 L3591.97 1666.59 L3591.97 1666.59 L3600.88 1666.59 L3600.88 1666.59 L3609.79 1666.59 L3609.79 1658.30 L3618.57 1658.30 L3618.57 1655.46 L3627.48 1655.46 L3627.48 1655.46 L3636.27 1655.46 L3636.27 1649.27 L3645.18 1649.27 L3645.18 1645.93 L3653.97 1645.93 L3653.97 1638.87 L3662.88 1638.87 L3662.88 1638.87 L3671.66 1638.87 L3671.66 1638.87 L3680.57 1638.87 L3680.57 1638.87 L3689.36 1638.87 L3689.36 1634.42 L3698.27 1634.42 L3698.27 1629.47 L3707.18 1629.47 L3707.18 1629.47 L3715.97 1629.47 L3715.97 1629.47 L3724.88 1629.47 L3724.88 1629.47 L3733.66 1629.47 L3733.66 1621.05 L3742.57 1621.05 L3742.57 1610.78 L3751.36 1610.78 L3751.36 1610.78 L3760.27 1610.78 L3760.27 1610.78 L3769.05 1610.78 L3769.05 1595.31 L3777.96 1595.31 L3777.96 1572.79 L3786.75 1572.79 L3786.75 1572.79 L3795.66 1572.79 L3795.66 1572.79" stroke-linejoin="round" style="fill:none;stroke:#1A476F;stroke-width:8.64"/>
	<path d=" M493.27 2311.35 L493.27 2311.35 L493.27 2311.35 L493.27 2311.35 L493.27 2311.35 L493.27 2311.35 L493.27 2311.35 L493.27 2311.35 L493.27 2311.35 L502.05 2311.35 L502.05 2310.86 L510.96 2310.86 L510.96 2309.74 L519.75 2309.74 L519.75 2308.75 L528.66 2308.75 L528.66 2308.13 L537.57 2308.13 L537.57 2307.14 L546.36 2307.14 L546.36 2306.03 L564.05 2306.03 L564.05 2303.93 L572.96 2303.93 L572.96 2301.70 L581.75 2301.70 L581.75 2301.20 L590.66 2301.20 L590.66 2299.10 L599.45 2299.10 L599.45 2298.60 L608.36 2298.60 L608.36 2297.49 L617.14 2297.49 L617.14 2295.88 L626.05 2295.88 L626.05 2293.78 L634.96 2293.78 L634.96 2290.56 L643.75 2290.56 L643.75 2287.84 L652.66 2287.84 L652.66 2285.73 L670.35 2285.73 L670.35 2284.62 L679.14 2284.62 L679.14 2282.02 L688.05 2282.02 L688.05 2281.40 L696.84 2281.40 L696.84 2280.41 L705.75 2280.41 L705.75 2278.80 L714.53 2278.80 L714.53 2277.69 L723.44 2277.69 L723.44 2276.58 L732.35 2276.58 L732.35 2273.36 L741.14 2273.36 L741.14 2271.87 L750.05 2271.87 L750.05 2270.76 L758.84 2270.76 L758.84 2268.04 L767.75 2268.04 L767.75 2265.44 L776.53 2265.44 L776.53 2264.32 L785.44 2264.32 L785.44 2262.22 L794.23 2262.22 L794.23 2259.50 L803.14 2259.50 L803.14 2256.90 L811.92 2256.90 L811.92 2253.68 L820.83 2253.68 L820.83 2252.07 L829.62 2252.07 L829.62 2250.96 L838.53 2250.96 L838.53 2248.86 L847.44 2248.86 L847.44 2248.24 L856.23 2248.24 L856.23 2246.75 L865.14 2246.75 L865.14 2241.93 L873.92 2241.93 L873.92 2238.71 L882.83 2238.71 L882.83 2237.10 L891.62 2237.10 L891.62 2235.49 L900.53 2235.49 L900.53 2232.27 L909.32 2232.27 L909.32 2230.66 L918.23 2230.66 L918.23 2229.55 L927.01 2229.55 L927.01 2227.45 L935.92 2227.45 L935.92 2225.34 L944.83 2225.34 L944.83 2223.11 L953.62 2223.11 L953.62 2221.63 L962.53 2221.63 L962.53 2219.40 L971.31 2219.40 L971.31 2217.30 L980.22 2217.30 L980.22 2215.19 L989.01 2215.19 L989.01 2214.08 L997.92 2214.08 L997.92 2211.36 L1006.71 2211.36 L1006.71 2209.25 L1024.40 2209.25 L1024.40 2207.15 L1033.31 2207.15 L1033.31 2203.93 L1042.22 2203.93 L1042.22 2201.21 L1051.01 2201.21 L1051.01 2197.99 L1059.92 2197.99 L1059.92 2195.89 L1068.71 2195.89 L1068.71 2195.39 L1077.62 2195.39 L1077.62 2192.18 L1086.40 2192.18 L1086.40 2191.06 L1095.31 2191.06 L1095.31 2188.96 L1104.10 2188.96 L1104.10 2184.63 L1113.01 2184.63 L1113.01 2183.64 L1121.79 2183.64 L1121.79 2180.42 L1130.70 2180.42 L1130.70 2178.81 L1139.61 2178.81 L1139.61 2177.70 L1148.40 2177.70 L1148.40 2175.10 L1157.31 2175.10 L1157.31 2171.88 L1166.10 2171.88 L1166.10 2168.17 L1175.01 2168.17 L1175.01 2165.45 L1183.79 2165.45 L1183.79 2161.11 L1192.70 2161.11 L1192.70 2160.12 L1201.49 2160.12 L1201.49 2157.40 L1210.40 2157.40 L1210.40 2156.41 L1219.19 2156.41 L1219.19 2153.69 L1228.10 2153.69 L1228.10 2150.97 L1237.01 2150.97 L1237.01 2149.98 L1245.79 2149.98 L1245.79 2147.25 L1254.70 2147.25 L1254.70 2146.14 L1263.49 2146.14 L1263.49 2143.05 L1272.40 2143.05 L1272.40 2140.32 L1281.18 2140.32 L1281.18 2139.21 L1290.09 2139.21 L1290.09 2135.99 L1298.88 2135.99 L1298.88 2135.00 L1307.79 2135.00 L1307.79 2131.29 L1316.58 2131.29 L1316.58 2128.57 L1325.49 2128.57 L1325.49 2126.96 L1334.40 2126.96 L1334.40 2126.46 L1343.18 2126.46 L1343.18 2124.85 L1352.09 2124.85 L1352.09 2122.63 L1360.88 2122.63 L1360.88 2121.02 L1369.79 2121.02 L1369.79 2116.81 L1378.58 2116.81 L1378.58 2116.31 L1387.49 2116.31 L1387.49 2113.10 L1396.27 2113.10 L1396.27 2112.48 L1405.18 2112.48 L1405.18 2110.37 L1413.97 2110.37 L1413.97 2108.27 L1422.88 2108.27 L1422.88 2106.66 L1431.79 2106.66 L1431.79 2105.05 L1440.57 2105.05 L1440.57 2103.94 L1449.48 2103.94 L1449.48 2103.44 L1458.27 2103.44 L1458.27 2101.84 L1467.18 2101.84 L1467.18 2099.73 L1475.97 2099.73 L1475.97 2097.01 L1484.88 2097.01 L1484.88 2095.40 L1493.66 2095.40 L1493.66 2092.80 L1502.57 2092.80 L1502.57 2090.08 L1511.36 2090.08 L1511.36 2088.97 L1520.27 2088.97 L1520.27 2087.98 L1529.18 2087.98 L1529.18 2085.25 L1537.97 2085.25 L1537.97 2083.64 L1546.88 2083.64 L1546.88 2082.04 L1555.66 2082.04 L1555.66 2077.83 L1564.57 2077.83 L1564.57 2076.71 L1573.36 2076.71 L1573.36 2073.50 L1582.27 2073.50 L1582.27 2071.39 L1591.05 2071.39 L1591.05 2068.67 L1599.96 2068.67 L1599.96 2066.07 L1608.75 2066.07 L1608.75 2063.84 L1617.66 2063.84 L1617.66 2062.23 L1626.57 2062.23 L1626.57 2059.64 L1635.36 2059.64 L1635.36 2054.81 L1644.27 2054.81 L1644.27 2054.31 L1653.05 2054.31 L1653.05 2051.59 L1661.96 2051.59 L1661.96 2048.87 L1670.75 2048.87 L1670.75 2047.26 L1679.66 2047.26 L1679.66 2043.55 L1688.45 2043.55 L1688.45 2040.95 L1697.36 2040.95 L1697.36 2035.50 L1706.14 2035.50 L1706.14 2033.89 L1715.05 2033.89 L1715.05 2032.29 L1723.96 2032.29 L1723.96 2027.58 L1732.75 2027.58 L1732.75 2024.86 L1741.66 2024.86 L1741.66 2022.14 L1750.44 2022.14 L1750.44 2020.03 L1759.35 2020.03 L1759.35 2017.93 L1768.14 2017.93 L1768.14 2012.61 L1777.05 2012.61 L1777.05 2011.99 L1785.84 2011.99 L1785.84 2007.78 L1794.75 2007.78 L1794.75 2006.67 L1803.53 2006.67 L1803.53 2005.68 L1812.44 2005.68 L1812.44 2005.06 L1821.35 2005.06 L1821.35 2002.96 L1830.14 2002.96 L1830.14 1999.74 L1839.05 1999.74 L1839.05 1997.02 L1847.84 1997.02 L1847.84 1995.41 L1856.75 1995.41 L1856.75 1993.30 L1865.53 1993.30 L1865.53 1990.70 L1874.44 1990.70 L1874.44 1986.87 L1883.23 1986.87 L1883.23 1984.76 L1892.14 1984.76 L1892.14 1979.94 L1900.92 1979.94 L1900.92 1977.83 L1909.83 1977.83 L1909.83 1976.23 L1927.53 1976.23 L1927.53 1975.73 L1936.44 1975.73 L1936.44 1974.12 L1945.23 1974.12 L1945.23 1968.68 L1954.14 1968.68 L1954.14 1966.08 L1962.92 1966.08 L1962.92 1964.96 L1971.83 1964.96 L1971.83 1961.75 L1980.62 1961.75 L1980.62 1960.76 L1989.53 1960.76 L1989.53 1958.53 L1998.32 1958.53 L1998.32 1957.54 L2007.23 1957.54 L2007.23 1953.83 L2016.14 1953.83 L2016.14 1952.71 L2024.92 1952.71 L2024.92 1951.60 L2033.83 1951.60 L2033.83 1947.39 L2042.62 1947.39 L2042.62 1943.06 L2051.53 1943.06 L2051.53 1938.23 L2060.31 1938.23 L2060.31 1934.52 L2069.22 1934.52 L2069.22 1932.42 L2078.01 1932.42 L2078.01 1929.20 L2086.92 1929.20 L2086.92 1928.09 L2095.71 1928.09 L2095.71 1925.49 L2104.62 1925.49 L2104.62 1923.26 L2113.40 1923.26 L2113.40 1920.04 L2122.31 1920.04 L2122.31 1918.43 L2131.22 1918.43 L2131.22 1916.95 L2140.01 1916.95 L2140.01 1914.72 L2148.92 1914.72 L2148.92 1912.12 L2157.71 1912.12 L2157.71 1911.01 L2166.61 1911.01 L2166.61 1909.40 L2175.40 1909.40 L2175.40 1907.29 L2184.31 1907.29 L2184.31 1906.18 L2193.10 1906.18 L2193.10 1904.08 L2202.01 1904.08 L2202.01 1901.97 L2210.79 1901.97 L2210.79 1897.64 L2219.70 1897.64 L2219.70 1896.03 L2228.61 1896.03 L2228.61 1893.93 L2237.40 1893.93 L2237.40 1891.21 L2246.31 1891.21 L2246.31 1890.71 L2255.10 1890.71 L2255.10 1887.99 L2264.01 1887.99 L2264.01 1884.28 L2281.70 1884.28 L2281.70 1883.16 L2290.49 1883.16 L2290.49 1882.17 L2299.40 1882.17 L2299.40 1879.45 L2308.19 1879.45 L2308.19 1878.46 L2317.09 1878.46 L2317.09 1877.35 L2326.01 1877.35 L2326.01 1873.63 L2334.79 1873.63 L2334.79 1870.42 L2343.70 1870.42 L2343.70 1866.58 L2352.49 1866.58 L2352.49 1866.08 L2361.40 1866.08 L2361.40 1863.49 L2370.18 1863.49 L2370.18 1861.26 L2379.09 1861.26 L2379.09 1859.15 L2387.88 1859.15 L2387.88 1856.43 L2396.79 1856.43 L2396.79 1854.33 L2405.58 1854.33 L2405.58 1850.12 L2414.49 1850.12 L2414.49 1847.89 L2423.40 1847.89 L2423.40 1846.90 L2432.18 1846.90 L2432.18 1844.68 L2441.09 1844.68 L2441.09 1842.57 L2449.88 1842.57 L2449.88 1838.86 L2458.79 1838.86 L2458.79 1835.15 L2467.57 1835.15 L2467.57 1832.42 L2476.49 1832.42 L2476.49 1831.31 L2485.27 1831.31 L2485.27 1828.09 L2494.18 1828.09 L2494.18 1827.10 L2502.97 1827.10 L2502.97 1825.99 L2511.88 1825.99 L2511.88 1825.00 L2520.79 1825.00 L2520.79 1822.77 L2529.57 1822.77 L2529.57 1821.16 L2538.48 1821.16 L2538.48 1817.45 L2547.27 1817.45 L2547.27 1814.85 L2556.18 1814.85 L2556.18 1810.02 L2564.97 1810.02 L2564.97 1807.80 L2573.88 1807.80 L2573.88 1806.81 L2582.66 1806.81 L2582.66 1804.08 L2591.57 1804.08 L2591.57 1801.98 L2600.36 1801.98 L2600.36 1800.37 L2609.27 1800.37 L2609.27 1797.15 L2618.18 1797.15 L2618.18 1794.43 L2626.97 1794.43 L2626.97 1793.94 L2635.88 1793.94 L2635.88 1791.83 L2644.66 1791.83 L2644.66 1790.22 L2653.57 1790.22 L2653.57 1788.12 L2662.36 1788.12 L2662.36 1787.01 L2671.27 1787.01 L2671.27 1784.90 L2680.05 1784.90 L2680.05 1783.29 L2688.96 1783.29 L2688.96 1780.08 L2697.75 1780.08 L2697.75 1776.36 L2706.66 1776.36 L2706.66 1773.15 L2715.57 1773.15 L2715.57 1772.03 L2724.36 1772.03 L2724.36 1770.42 L2733.27 1770.42 L2733.27 1768.32 L2742.05 1768.32 L2742.05 1763.99 L2750.96 1763.99 L2750.96 1762.38 L2759.75 1762.38 L2759.75 1760.28 L2768.66 1760.28 L2768.66 1757.06 L2777.45 1757.06 L2777.45 1754.33 L2786.36 1754.33 L2786.36 1752.73 L2795.14 1752.73 L2795.14 1750.13 L2804.05 1750.13 L2804.05 1749.01 L2812.96 1749.01 L2812.96 1746.41 L2821.75 1746.41 L2821.75 1744.81 L2830.66 1744.81 L2830.66 1744.19 L2848.35 1744.19 L2848.35 1741.59 L2857.14 1741.59 L2857.14 1740.47 L2866.05 1740.47 L2866.05 1738.37 L2874.84 1738.37 L2874.84 1737.26 L2883.75 1737.26 L2883.75 1733.54 L2892.53 1733.54 L2892.53 1732.43 L2901.44 1732.43 L2901.44 1727.60 L2910.35 1727.60 L2910.35 1726.12 L2919.14 1726.12 L2919.14 1722.90 L2928.05 1722.90 L2928.05 1721.29 L2936.84 1721.29 L2936.84 1719.06 L2945.75 1719.06 L2945.75 1717.46 L2954.53 1717.46 L2954.53 1715.35 L2963.44 1715.35 L2963.44 1713.25 L2972.23 1713.25 L2972.23 1711.64 L2981.14 1711.64 L2981.14 1708.92 L2989.92 1708.92 L2989.92 1705.20 L2998.83 1705.20 L2998.83 1703.10 L3007.74 1703.10 L3007.74 1699.88 L3016.53 1699.88 L3016.53 1696.67 L3025.44 1696.67 L3025.44 1693.94 L3034.23 1693.94 L3034.23 1692.95 L3043.14 1692.95 L3043.14 1691.84 L3051.92 1691.84 L3051.92 1687.63 L3060.83 1687.63 L3060.83 1682.81 L3069.62 1682.81 L3069.62 1681.20 L3078.53 1681.20 L3078.53 1678.47 L3087.32 1678.47 L3087.32 1674.27 L3096.23 1674.27 L3096.23 1673.15 L3105.14 1673.15 L3105.14 1669.93 L3113.92 1669.93 L3113.92 1667.83 L3122.83 1667.83 L3122.83 1666.22 L3131.62 1666.22 L3131.62 1662.39 L3140.53 1662.39 L3140.53 1661.40 L3149.31 1661.40 L3149.31 1656.57 L3158.22 1656.57 L3158.22 1654.47 L3167.01 1654.47 L3167.01 1650.13 L3175.92 1650.13 L3175.92 1646.42 L3184.71 1646.42 L3184.71 1644.19 L3193.62 1644.19 L3193.62 1640.85 L3202.53 1640.85 L3202.53 1637.02 L3211.31 1637.02 L3211.31 1633.06 L3220.22 1633.06 L3220.22 1631.94 L3229.01 1631.94 L3229.01 1628.48 L3237.92 1628.48 L3237.92 1628.48 L3246.71 1628.48 L3246.71 1626.13 L3255.62 1626.13 L3255.62 1623.65 L3264.40 1623.65 L3264.40 1621.79 L3273.31 1621.79 L3273.31 1619.32 L3282.10 1619.32 L3282.10 1618.08 L3291.01 1618.08 L3291.01 1617.46 L3299.79 1617.46 L3299.79 1614.74 L3308.70 1614.74 L3308.70 1612.76 L3317.61 1612.76 L3317.61 1611.40 L3326.40 1611.40 L3326.40 1609.30 L3335.31 1609.30 L3335.31 1606.57 L3344.10 1606.57 L3344.10 1600.63 L3353.01 1600.63 L3353.01 1599.89 L3361.79 1599.89 L3361.79 1596.18 L3370.70 1596.18 L3370.70 1593.08 L3379.49 1593.08 L3379.49 1588.38 L3388.40 1588.38 L3388.40 1585.16 L3397.19 1585.16 L3397.19 1583.43 L3406.10 1583.43 L3406.10 1580.96 L3415.01 1580.96 L3415.01 1579.22 L3423.79 1579.22 L3423.79 1578.36 L3432.70 1578.36 L3432.70 1574.64 L3441.49 1574.64 L3441.49 1573.78 L3450.40 1573.78 L3450.40 1571.80 L3459.18 1571.80 L3459.18 1570.81 L3468.09 1570.81 L3468.09 1569.82 L3476.88 1569.82 L3476.88 1567.84 L3485.79 1567.84 L3485.79 1566.72 L3494.58 1566.72 L3494.58 1561.28 L3503.49 1561.28 L3503.49 1556.70 L3512.40 1556.70 L3512.40 1556.70 L3521.18 1556.70 L3521.18 1555.59 L3530.09 1555.59 L3530.09 1554.35 L3538.88 1554.35 L3538.88 1549.15 L3547.79 1549.15 L3547.79 1543.83 L3556.58 1543.83 L3556.58 1540.98 L3565.49 1540.98 L3565.49 1539.62 L3574.27 1539.62 L3574.27 1536.65 L3583.18 1536.65 L3583.18 1536.65 L3591.97 1536.65 L3591.97 1536.65 L3600.88 1536.65 L3600.88 1533.31 L3609.79 1533.31 L3609.79 1531.45 L3618.57 1531.45 L3618.57 1524.15 L3627.48 1524.15 L3627.48 1524.15 L3636.27 1524.15 L3636.27 1518.21 L3645.18 1518.21 L3645.18 1518.21 L3653.97 1518.21 L3653.97 1513.63 L3662.88 1513.63 L3662.88 1511.28 L3671.66 1511.28 L3671.66 1506.08 L3680.57 1506.08 L3680.57 1506.08 L3689.36 1506.08 L3689.36 1506.08 L3698.27 1506.08 L3698.27 1506.08 L3707.18 1506.08 L3707.18 1506.08 L3715.97 1506.08 L3715.97 1506.08 L3724.88 1506.08 L3724.88 1506.08 L3733.66 1506.08 L3733.66 1506.08 L3742.57 1506.08 L3742.57 1506.08 L3751.36 1506.08 L3751.36 1506.08 L3760.27 1506.08 L3760.27 1506.08 L3769.05 1506.08 L3769.05 1506.08 L3777.96 1506.08 L3777.96 1506.08 L3786.75 1506.08 L3786.75 1506.08 L3795.66 1506.08 L3795.66 1506.08" stroke-linejoin="round" style="fill:none;stroke:#90353B;stroke-width:8.64"/>
	<path d=" M493.27 2311.35 L493.27 2311.35 L493.27 2311.35 L493.27 2311.35 L493.27 2311.35 L493.27 2311.35 L493.27 2311.35 L493.27 2311.35 L493.27 2311.35 L502.05 2311.35 L502.05 2310.36 L510.96 2310.36 L510.96 2309.62 L519.75 2309.62 L519.75 2307.14 L528.66 2307.14 L528.66 2305.41 L537.57 2305.41 L537.57 2303.55 L546.36 2303.55 L546.36 2301.45 L555.27 2301.45 L555.27 2299.35 L564.05 2299.35 L564.05 2296.87 L572.96 2296.87 L572.96 2294.03 L581.75 2294.03 L581.75 2292.66 L590.66 2292.66 L590.66 2289.45 L599.45 2289.45 L599.45 2287.71 L608.36 2287.71 L608.36 2285.98 L617.14 2285.98 L617.14 2282.39 L626.05 2282.39 L626.05 2279.30 L634.96 2279.30 L634.96 2277.44 L643.75 2277.44 L643.75 2276.45 L652.66 2276.45 L652.66 2273.98 L661.44 2273.98 L661.44 2269.40 L670.35 2269.40 L670.35 2267.29 L679.14 2267.29 L679.14 2266.18 L688.05 2266.18 L688.05 2262.72 L696.84 2262.72 L696.84 2261.60 L705.75 2261.60 L705.75 2260.24 L714.53 2260.24 L714.53 2259.13 L723.44 2259.13 L723.44 2257.02 L732.35 2257.02 L732.35 2253.56 L741.14 2253.56 L741.14 2249.97 L750.05 2249.97 L750.05 2249.23 L758.84 2249.23 L758.84 2248.61 L767.75 2248.61 L767.75 2246.50 L776.53 2246.50 L776.53 2242.92 L785.44 2242.92 L785.44 2241.18 L794.23 2241.18 L794.23 2240.44 L803.14 2240.44 L803.14 2239.08 L811.92 2239.08 L811.92 2235.86 L820.83 2235.86 L820.83 2233.76 L829.62 2233.76 L829.62 2231.65 L838.53 2231.65 L838.53 2228.81 L847.44 2228.81 L847.44 2226.33 L856.23 2226.33 L856.23 2223.86 L865.14 2223.86 L865.14 2221.38 L873.92 2221.38 L873.92 2219.28 L882.83 2219.28 L882.83 2216.80 L891.62 2216.80 L891.62 2214.33 L900.53 2214.33 L900.53 2211.85 L909.32 2211.85 L909.32 2208.64 L918.23 2208.64 L918.23 2206.16 L927.01 2206.16 L927.01 2204.06 L935.92 2204.06 L935.92 2201.95 L944.83 2201.95 L944.83 2199.85 L953.62 2199.85 L953.62 2196.75 L962.53 2196.75 L962.53 2194.53 L971.31 2194.53 L971.31 2192.42 L980.22 2192.42 L980.22 2190.32 L989.01 2190.32 L989.01 2188.22 L997.92 2188.22 L997.92 2186.48 L1006.71 2186.48 L1006.71 2182.28 L1015.62 2182.28 L1015.62 2178.32 L1024.40 2178.32 L1024.40 2175.47 L1033.31 2175.47 L1033.31 2173.74 L1042.22 2173.74 L1042.22 2170.89 L1051.01 2170.89 L1051.01 2166.68 L1059.92 2166.68 L1059.92 2165.69 L1068.71 2165.69 L1068.71 2162.48 L1077.62 2162.48 L1077.62 2160.37 L1086.40 2160.37 L1086.40 2158.64 L1095.31 2158.64 L1095.31 2154.68 L1104.10 2154.68 L1104.10 2152.57 L1113.01 2152.57 L1113.01 2151.58 L1121.79 2151.58 L1121.79 2149.11 L1130.70 2149.11 L1130.70 2147.25 L1139.61 2147.25 L1139.61 2146.26 L1148.40 2146.26 L1148.40 2142.30 L1157.31 2142.30 L1157.31 2139.21 L1166.10 2139.21 L1166.10 2133.52 L1175.01 2133.52 L1175.01 2130.05 L1183.79 2130.05 L1183.79 2127.95 L1192.70 2127.95 L1192.70 2126.09 L1201.49 2126.09 L1201.49 2123.62 L1210.40 2123.62 L1210.40 2120.77 L1219.19 2120.77 L1219.19 2117.68 L1228.10 2117.68 L1228.10 2113.47 L1237.01 2113.47 L1237.01 2110.25 L1245.79 2110.25 L1245.79 2106.66 L1254.70 2106.66 L1254.70 2103.94 L1263.49 2103.94 L1263.49 2100.35 L1272.40 2100.35 L1272.40 2097.13 L1281.18 2097.13 L1281.18 2094.04 L1290.09 2094.04 L1290.09 2091.56 L1298.88 2091.56 L1298.88 2088.35 L1307.79 2088.35 L1307.79 2085.50 L1316.58 2085.50 L1316.58 2083.77 L1325.49 2083.77 L1325.49 2081.29 L1334.40 2081.29 L1334.40 2079.19 L1343.18 2079.19 L1343.18 2075.35 L1352.09 2075.35 L1352.09 2068.92 L1360.88 2068.92 L1360.88 2066.19 L1369.79 2066.19 L1369.79 2063.72 L1378.58 2063.72 L1378.58 2059.14 L1387.49 2059.14 L1387.49 2056.67 L1396.27 2056.67 L1396.27 2053.45 L1405.18 2053.45 L1405.18 2047.14 L1413.97 2047.14 L1413.97 2043.55 L1422.88 2043.55 L1422.88 2041.44 L1431.79 2041.44 L1431.79 2039.71 L1440.57 2039.71 L1440.57 2036.86 L1449.48 2036.86 L1449.48 2031.91 L1458.27 2031.91 L1458.27 2028.70 L1467.18 2028.70 L1467.18 2025.97 L1475.97 2025.97 L1475.97 2022.39 L1484.88 2022.39 L1484.88 2019.91 L1493.66 2019.91 L1493.66 2014.59 L1502.57 2014.59 L1502.57 2010.75 L1511.36 2010.75 L1511.36 2007.54 L1520.27 2007.54 L1520.27 2005.06 L1529.18 2005.06 L1529.18 2002.21 L1537.97 2002.21 L1537.97 1999.49 L1546.88 1999.49 L1546.88 1995.90 L1555.66 1995.90 L1555.66 1992.07 L1564.57 1992.07 L1564.57 1989.96 L1573.36 1989.96 L1573.36 1988.11 L1582.27 1988.11 L1582.27 1986.37 L1591.05 1986.37 L1591.05 1983.16 L1599.96 1983.16 L1599.96 1980.43 L1608.75 1980.43 L1608.75 1975.48 L1617.66 1975.48 L1617.66 1974.00 L1626.57 1974.00 L1626.57 1969.42 L1635.36 1969.42 L1635.36 1966.33 L1644.27 1966.33 L1644.27 1962.37 L1653.05 1962.37 L1653.05 1959.52 L1661.96 1959.52 L1661.96 1955.68 L1670.75 1955.68 L1670.75 1952.84 L1679.66 1952.84 L1679.66 1948.63 L1688.45 1948.63 L1688.45 1945.78 L1697.36 1945.78 L1697.36 1941.95 L1706.14 1941.95 L1706.14 1940.21 L1715.05 1940.21 L1715.05 1937.74 L1723.96 1937.74 L1723.96 1934.89 L1732.75 1934.89 L1732.75 1930.31 L1741.66 1930.31 L1741.66 1928.21 L1750.44 1928.21 L1750.44 1924.25 L1759.35 1924.25 L1759.35 1922.15 L1768.14 1922.15 L1768.14 1916.58 L1777.05 1916.58 L1777.05 1913.73 L1785.84 1913.73 L1785.84 1911.25 L1794.75 1911.25 L1794.75 1908.04 L1803.53 1908.04 L1803.53 1904.57 L1812.44 1904.57 L1812.44 1900.24 L1821.35 1900.24 L1821.35 1898.51 L1830.14 1898.51 L1830.14 1896.78 L1839.05 1896.78 L1839.05 1896.40 L1847.84 1896.40 L1847.84 1893.56 L1856.75 1893.56 L1856.75 1891.83 L1865.53 1891.83 L1865.53 1887.25 L1874.44 1887.25 L1874.44 1884.77 L1883.23 1884.77 L1883.23 1882.67 L1892.14 1882.67 L1892.14 1879.45 L1900.92 1879.45 L1900.92 1876.36 L1909.83 1876.36 L1909.83 1873.51 L1918.74 1873.51 L1918.74 1872.02 L1927.53 1872.02 L1927.53 1869.92 L1936.44 1869.92 L1936.44 1866.46 L1945.23 1866.46 L1945.23 1864.97 L1954.14 1864.97 L1954.14 1862.87 L1962.92 1862.87 L1962.92 1859.77 L1971.83 1859.77 L1971.83 1856.18 L1980.62 1856.18 L1980.62 1853.71 L1989.53 1853.71 L1989.53 1851.23 L1998.32 1851.23 L1998.32 1849.87 L2007.23 1849.87 L2007.23 1846.66 L2016.14 1846.66 L2016.14 1845.29 L2024.92 1845.29 L2024.92 1842.08 L2033.83 1842.08 L2033.83 1838.86 L2042.62 1838.86 L2042.62 1835.39 L2051.53 1835.39 L2051.53 1832.55 L2060.31 1832.55 L2060.31 1829.08 L2069.22 1829.08 L2069.22 1825.86 L2078.01 1825.86 L2078.01 1823.39 L2086.92 1823.39 L2086.92 1819.18 L2095.71 1819.18 L2095.71 1815.22 L2104.62 1815.22 L2104.62 1813.12 L2113.40 1813.12 L2113.40 1810.02 L2122.31 1810.02 L2122.31 1806.44 L2131.22 1806.44 L2131.22 1804.70 L2140.01 1804.70 L2140.01 1802.23 L2148.92 1802.23 L2148.92 1797.28 L2157.71 1797.28 L2157.71 1794.43 L2166.61 1794.43 L2166.61 1791.96 L2175.40 1791.96 L2175.40 1789.85 L2184.31 1789.85 L2184.31 1786.02 L2193.10 1786.02 L2193.10 1783.17 L2202.01 1783.17 L2202.01 1781.07 L2210.79 1781.07 L2210.79 1777.85 L2219.70 1777.85 L2219.70 1775.74 L2228.61 1775.74 L2228.61 1773.64 L2237.40 1773.64 L2237.40 1772.53 L2246.31 1772.53 L2246.31 1770.05 L2255.10 1770.05 L2255.10 1768.69 L2264.01 1768.69 L2264.01 1763.37 L2272.79 1763.37 L2272.79 1760.89 L2281.70 1760.89 L2281.70 1757.80 L2290.49 1757.80 L2290.49 1757.06 L2299.40 1757.06 L2299.40 1755.57 L2308.19 1755.57 L2308.19 1752.85 L2317.09 1752.85 L2317.09 1750.75 L2326.01 1750.75 L2326.01 1748.52 L2334.79 1748.52 L2334.79 1746.41 L2343.70 1746.41 L2343.70 1744.68 L2352.49 1744.68 L2352.49 1741.46 L2361.40 1741.46 L2361.40 1739.73 L2370.18 1739.73 L2370.18 1736.51 L2379.09 1736.51 L2379.09 1733.42 L2387.88 1733.42 L2387.88 1731.69 L2396.79 1731.69 L2396.79 1728.47 L2405.58 1728.47 L2405.58 1725.25 L2414.49 1725.25 L2414.49 1722.78 L2423.40 1722.78 L2423.40 1722.16 L2432.18 1722.16 L2432.18 1719.68 L2441.09 1719.68 L2441.09 1719.31 L2449.88 1719.31 L2449.88 1717.58 L2458.79 1717.58 L2458.79 1714.73 L2467.57 1714.73 L2467.57 1711.52 L2476.49 1711.52 L2476.49 1709.78 L2485.27 1709.78 L2485.27 1706.94 L2494.18 1706.94 L2494.18 1703.10 L2502.97 1703.10 L2502.97 1700.87 L2511.88 1700.87 L2511.88 1699.88 L2520.79 1699.88 L2520.79 1697.41 L2529.57 1697.41 L2529.57 1694.93 L2538.48 1694.93 L2538.48 1692.83 L2547.27 1692.83 L2547.27 1689.61 L2556.18 1689.61 L2556.18 1688.25 L2564.97 1688.25 L2564.97 1686.52 L2573.88 1686.52 L2573.88 1685.78 L2582.66 1685.78 L2582.66 1683.30 L2591.57 1683.30 L2591.57 1681.20 L2600.36 1681.20 L2600.36 1677.24 L2609.27 1677.24 L2609.27 1674.51 L2618.18 1674.51 L2618.18 1671.67 L2626.97 1671.67 L2626.97 1667.71 L2635.88 1667.71 L2635.88 1666.72 L2644.66 1666.72 L2644.66 1663.50 L2653.57 1663.50 L2653.57 1660.41 L2662.36 1660.41 L2662.36 1658.18 L2671.27 1658.18 L2671.27 1656.82 L2680.05 1656.82 L2680.05 1654.34 L2688.96 1654.34 L2688.96 1651.50 L2697.75 1651.50 L2697.75 1650.13 L2706.66 1650.13 L2706.66 1645.56 L2715.57 1645.56 L2715.57 1644.44 L2724.36 1644.44 L2724.36 1641.35 L2733.27 1641.35 L2733.27 1637.76 L2742.05 1637.76 L2742.05 1636.03 L2750.96 1636.03 L2750.96 1635.28 L2759.75 1635.28 L2759.75 1632.44 L2768.66 1632.44 L2768.66 1629.71 L2777.45 1629.71 L2777.45 1627.49 L2786.36 1627.49 L2786.36 1625.01 L2795.14 1625.01 L2795.14 1621.92 L2804.05 1621.92 L2804.05 1618.33 L2812.96 1618.33 L2812.96 1616.23 L2821.75 1616.23 L2821.75 1614.12 L2830.66 1614.12 L2830.66 1612.02 L2839.44 1612.02 L2839.44 1608.18 L2848.35 1608.18 L2848.35 1606.70 L2857.14 1606.70 L2857.14 1604.59 L2866.05 1604.59 L2866.05 1601.38 L2874.84 1601.38 L2874.84 1598.90 L2883.75 1598.90 L2883.75 1597.17 L2892.53 1597.17 L2892.53 1596.18 L2901.44 1596.18 L2901.44 1592.59 L2910.35 1592.59 L2910.35 1590.86 L2919.14 1590.86 L2919.14 1589.12 L2928.05 1589.12 L2928.05 1586.65 L2936.84 1586.65 L2936.84 1584.17 L2945.75 1584.17 L2945.75 1581.33 L2954.53 1581.33 L2954.53 1578.11 L2963.44 1578.11 L2963.44 1574.64 L2972.23 1574.64 L2972.23 1571.06 L2981.14 1571.06 L2981.14 1568.21 L2989.92 1568.21 L2989.92 1566.85 L2998.83 1566.85 L2998.83 1566.11 L3007.74 1566.11 L3007.74 1565.49 L3016.53 1565.49 L3016.53 1563.38 L3025.44 1563.38 L3025.44 1560.17 L3034.23 1560.17 L3034.23 1559.42 L3043.14 1559.42 L3043.14 1556.58 L3051.92 1556.58 L3051.92 1554.10 L3060.83 1554.10 L3060.83 1552.74 L3069.62 1552.74 L3069.62 1550.64 L3078.53 1550.64 L3078.53 1547.42 L3087.32 1547.42 L3087.32 1545.69 L3096.23 1545.69 L3096.23 1544.57 L3105.14 1544.57 L3105.14 1543.21 L3113.92 1543.21 L3113.92 1541.48 L3122.83 1541.48 L3122.83 1538.63 L3131.62 1538.63 L3131.62 1536.53 L3140.53 1536.53 L3140.53 1533.31 L3149.31 1533.31 L3149.31 1531.21 L3158.22 1531.21 L3158.22 1528.73 L3167.01 1528.73 L3167.01 1525.51 L3175.92 1525.51 L3175.92 1523.04 L3184.71 1523.04 L3184.71 1520.94 L3193.62 1520.94 L3193.62 1517.59 L3202.53 1517.59 L3202.53 1514.99 L3211.31 1514.99 L3211.31 1511.28 L3220.22 1511.28 L3220.22 1508.93 L3229.01 1508.93 L3229.01 1507.07 L3237.92 1507.07 L3237.92 1503.86 L3246.71 1503.86 L3246.71 1500.76 L3255.62 1500.76 L3255.62 1497.92 L3264.40 1497.92 L3264.40 1494.58 L3273.31 1494.58 L3273.31 1492.60 L3282.10 1492.60 L3282.10 1489.63 L3291.01 1489.63 L3291.01 1486.16 L3299.79 1486.16 L3299.79 1484.06 L3308.70 1484.06 L3308.70 1482.20 L3317.61 1482.20 L3317.61 1479.97 L3326.40 1479.97 L3326.40 1477.74 L3335.31 1477.74 L3335.31 1475.76 L3344.10 1475.76 L3344.10 1473.91 L3353.01 1473.91 L3353.01 1467.97 L3361.79 1467.97 L3361.79 1463.88 L3370.70 1463.88 L3370.70 1461.90 L3379.49 1461.90 L3379.49 1461.29 L3388.40 1461.29 L3388.40 1460.30 L3397.19 1460.30 L3397.19 1458.07 L3406.10 1458.07 L3406.10 1457.45 L3415.01 1457.45 L3415.01 1455.10 L3423.79 1455.10 L3423.79 1453.37 L3432.70 1453.37 L3432.70 1452.13 L3441.49 1452.13 L3441.49 1449.53 L3450.40 1449.53 L3450.40 1446.31 L3459.18 1446.31 L3459.18 1442.35 L3468.09 1442.35 L3468.09 1440.25 L3476.88 1440.25 L3476.88 1436.78 L3485.79 1436.78 L3485.79 1433.07 L3494.58 1433.07 L3494.58 1429.36 L3503.49 1429.36 L3503.49 1424.78 L3512.40 1424.78 L3512.40 1424.04 L3521.18 1424.04 L3521.18 1423.17 L3530.09 1423.17 L3530.09 1417.35 L3538.88 1417.35 L3538.88 1414.75 L3547.79 1414.75 L3547.79 1413.76 L3556.58 1413.76 L3556.58 1411.91 L3565.49 1411.91 L3565.49 1411.91 L3574.27 1411.91 L3574.27 1410.92 L3583.18 1410.92 L3583.18 1409.80 L3591.97 1409.80 L3591.97 1405.23 L3600.88 1405.23 L3600.88 1404.11 L3609.79 1404.11 L3609.79 1402.75 L3618.57 1402.75 L3618.57 1402.75 L3627.48 1402.75 L3627.48 1401.39 L3636.27 1401.39 L3636.27 1393.72 L3645.18 1393.72 L3645.18 1385.67 L3653.97 1385.67 L3653.97 1385.67 L3662.88 1385.67 L3662.88 1381.96 L3671.66 1381.96 L3671.66 1378.00 L3680.57 1378.00 L3680.57 1378.00 L3689.36 1378.00 L3689.36 1371.19 L3698.27 1371.19 L3698.27 1368.84 L3707.18 1368.84 L3707.18 1368.84 L3715.97 1368.84 L3715.97 1368.84 L3724.88 1368.84 L3724.88 1365.13 L3733.66 1365.13 L3733.66 1365.13 L3742.57 1365.13 L3742.57 1360.55 L3751.36 1360.55 L3751.36 1360.55 L3760.27 1360.55 L3760.27 1360.55 L3769.05 1360.55 L3769.05 1360.55 L3777.96 1360.55 L3777.96 1360.55 L3786.75 1360.55 L3786.75 1360.55 L3795.66 1360.55 L3795.66 1360.55" stroke-linejoin="round" style="fill:none;stroke:#55752F;stroke-width:8.64"/>
	<path d=" M493.27 2311.35 L493.27 2311.35 L493.27 2311.35 L493.27 2311.35 L493.27 2311.35 L493.27 2311.35 L493.27 2311.35 L493.27 2311.35 L493.27 2311.35 L502.05 2311.35 L502.05 2307.51 L510.96 2307.51 L510.96 2301.20 L519.75 2301.20 L519.75 2300.58 L528.66 2300.58 L528.66 2297.99 L537.57 2297.99 L537.57 2296.01 L546.36 2296.01 L546.36 2290.93 L555.27 2290.93 L555.27 2287.71 L564.05 2287.71 L564.05 2283.88 L572.96 2283.88 L572.96 2280.78 L581.75 2280.78 L581.75 2276.33 L590.66 2276.33 L590.66 2271.13 L599.45 2271.13 L599.45 2266.68 L608.36 2266.68 L608.36 2264.82 L617.14 2264.82 L617.14 2260.98 L626.05 2260.98 L626.05 2257.15 L634.96 2257.15 L634.96 2255.17 L643.75 2255.17 L643.75 2251.45 L652.66 2251.45 L652.66 2248.86 L661.44 2248.86 L661.44 2245.02 L670.35 2245.02 L670.35 2241.80 L679.14 2241.80 L679.14 2238.58 L688.05 2238.58 L688.05 2234.87 L696.84 2234.87 L696.84 2230.29 L705.75 2230.29 L705.75 2222.74 L714.53 2222.74 L714.53 2215.69 L723.44 2215.69 L723.44 2209.87 L732.35 2209.87 L732.35 2204.80 L741.14 2204.80 L741.14 2200.96 L750.05 2200.96 L750.05 2196.51 L758.84 2196.51 L758.84 2193.29 L767.75 2193.29 L767.75 2188.83 L776.53 2188.83 L776.53 2185.00 L785.44 2185.00 L785.44 2181.16 L794.23 2181.16 L794.23 2174.23 L803.14 2174.23 L803.14 2170.40 L811.92 2170.40 L811.92 2163.34 L820.83 2163.34 L820.83 2157.03 L829.62 2157.03 L829.62 2150.59 L838.53 2150.59 L838.53 2148.00 L847.44 2148.00 L847.44 2141.07 L856.23 2141.07 L856.23 2137.23 L865.14 2137.23 L865.14 2133.39 L873.92 2133.39 L873.92 2126.34 L882.83 2126.34 L882.83 2123.74 L891.62 2123.74 L891.62 2120.65 L900.53 2120.65 L900.53 2116.19 L909.32 2116.19 L909.32 2112.97 L918.23 2112.97 L918.23 2107.90 L927.01 2107.90 L927.01 2103.32 L935.92 2103.32 L935.92 2096.39 L944.83 2096.39 L944.83 2091.94 L953.62 2091.94 L953.62 2088.10 L962.53 2088.10 L962.53 2084.26 L971.31 2084.26 L971.31 2077.83 L980.22 2077.83 L980.22 2073.99 L989.01 2073.99 L989.01 2068.30 L997.92 2068.30 L997.92 2062.61 L1006.71 2062.61 L1006.71 2060.01 L1015.62 2060.01 L1015.62 2056.79 L1024.40 2056.79 L1024.40 2051.10 L1033.31 2051.10 L1033.31 2047.88 L1042.22 2047.88 L1042.22 2044.04 L1051.01 2044.04 L1051.01 2035.13 L1059.92 2035.13 L1059.92 2033.15 L1068.71 2033.15 L1068.71 2027.46 L1077.62 2027.46 L1077.62 2021.77 L1086.40 2021.77 L1086.40 2019.17 L1095.31 2019.17 L1095.31 2015.95 L1104.10 2015.95 L1104.10 2010.88 L1113.01 2010.88 L1113.01 2003.20 L1121.79 2003.20 L1121.79 2001.35 L1130.70 2001.35 L1130.70 1999.37 L1139.61 1999.37 L1139.61 1995.53 L1148.40 1995.53 L1148.40 1990.46 L1157.31 1990.46 L1157.31 1984.02 L1166.10 1984.02 L1166.10 1978.33 L1175.01 1978.33 L1175.01 1976.47 L1183.79 1976.47 L1183.79 1970.66 L1192.70 1970.66 L1192.70 1966.82 L1201.49 1966.82 L1201.49 1962.98 L1210.40 1962.98 L1210.40 1957.91 L1219.19 1957.91 L1219.19 1954.07 L1228.10 1954.07 L1228.10 1945.16 L1237.01 1945.16 L1237.01 1934.89 L1245.79 1934.89 L1245.79 1930.44 L1254.70 1930.44 L1254.70 1925.98 L1263.49 1925.98 L1263.49 1922.15 L1272.40 1922.15 L1272.40 1917.69 L1281.18 1917.69 L1281.18 1911.38 L1290.09 1911.38 L1290.09 1908.78 L1298.88 1908.78 L1298.88 1904.32 L1307.79 1904.32 L1307.79 1899.87 L1316.58 1899.87 L1316.58 1897.89 L1325.49 1897.89 L1325.49 1894.05 L1334.40 1894.05 L1334.40 1887.74 L1343.18 1887.74 L1343.18 1885.14 L1352.09 1885.14 L1352.09 1882.67 L1360.88 1882.67 L1360.88 1880.69 L1369.79 1880.69 L1369.79 1875.61 L1378.58 1875.61 L1378.58 1871.78 L1387.49 1871.78 L1387.49 1869.92 L1396.27 1869.92 L1396.27 1866.08 L1405.18 1866.08 L1405.18 1862.25 L1413.97 1862.25 L1413.97 1854.58 L1422.88 1854.58 L1422.88 1849.50 L1431.79 1849.50 L1431.79 1845.05 L1440.57 1845.05 L1440.57 1841.21 L1449.48 1841.21 L1449.48 1836.63 L1458.27 1836.63 L1458.27 1832.18 L1467.18 1832.18 L1467.18 1825.86 L1475.97 1825.86 L1475.97 1820.79 L1484.88 1820.79 L1484.88 1816.95 L1493.66 1816.95 L1493.66 1812.50 L1502.57 1812.50 L1502.57 1807.30 L1511.36 1807.30 L1511.36 1805.45 L1520.27 1805.45 L1520.27 1804.21 L1529.18 1804.21 L1529.18 1801.61 L1537.97 1801.61 L1537.97 1795.92 L1546.88 1795.92 L1546.88 1792.70 L1555.66 1792.70 L1555.66 1790.10 L1564.57 1790.10 L1564.57 1785.03 L1573.36 1785.03 L1573.36 1779.21 L1582.27 1779.21 L1582.27 1777.35 L1591.05 1777.35 L1591.05 1770.92 L1599.96 1770.92 L1599.96 1768.44 L1608.75 1768.44 L1608.75 1763.37 L1617.66 1763.37 L1617.66 1757.55 L1626.57 1757.55 L1626.57 1753.72 L1635.36 1753.72 L1635.36 1749.88 L1644.27 1749.88 L1644.27 1741.59 L1653.05 1741.59 L1653.05 1735.28 L1661.96 1735.28 L1661.96 1732.06 L1670.75 1732.06 L1670.75 1728.84 L1679.66 1728.84 L1679.66 1725.62 L1688.45 1725.62 L1688.45 1720.55 L1697.36 1720.55 L1697.36 1717.33 L1706.14 1717.33 L1706.14 1712.26 L1715.05 1712.26 L1715.05 1708.42 L1723.96 1708.42 L1723.96 1705.20 L1732.75 1705.20 L1732.75 1703.97 L1741.66 1703.97 L1741.66 1701.49 L1750.44 1701.49 L1750.44 1697.66 L1759.35 1697.66 L1759.35 1694.44 L1768.14 1694.44 L1768.14 1691.22 L1777.05 1691.22 L1777.05 1688.00 L1785.84 1688.00 L1785.84 1682.93 L1794.75 1682.93 L1794.75 1679.09 L1803.53 1679.09 L1803.53 1675.87 L1812.44 1675.87 L1812.44 1671.42 L1821.35 1671.42 L1821.35 1668.20 L1830.14 1668.20 L1830.14 1664.49 L1839.05 1664.49 L1839.05 1660.65 L1847.84 1660.65 L1847.84 1658.05 L1856.75 1658.05 L1856.75 1654.84 L1865.53 1654.84 L1865.53 1651.62 L1874.44 1651.62 L1874.44 1647.78 L1883.23 1647.78 L1883.23 1642.71 L1892.14 1642.71 L1892.14 1640.23 L1900.92 1640.23 L1900.92 1635.04 L1909.83 1635.04 L1909.83 1631.94 L1918.74 1631.94 L1918.74 1628.72 L1927.53 1628.72 L1927.53 1622.29 L1936.44 1622.29 L1936.44 1619.07 L1945.23 1619.07 L1945.23 1616.60 L1954.14 1616.60 L1954.14 1612.14 L1962.92 1612.14 L1962.92 1610.16 L1971.83 1610.16 L1971.83 1606.33 L1980.62 1606.33 L1980.62 1601.87 L1989.53 1601.87 L1989.53 1598.03 L1998.32 1598.03 L1998.32 1593.58 L2007.23 1593.58 L2007.23 1587.89 L2016.14 1587.89 L2016.14 1584.67 L2024.92 1584.67 L2024.92 1580.83 L2033.83 1580.83 L2033.83 1576.38 L2042.62 1576.38 L2042.62 1574.52 L2051.53 1574.52 L2051.53 1571.30 L2060.31 1571.30 L2060.31 1568.70 L2069.22 1568.70 L2069.22 1564.25 L2078.01 1564.25 L2078.01 1561.65 L2086.92 1561.65 L2086.92 1559.17 L2095.71 1559.17 L2095.71 1555.96 L2104.62 1555.96 L2104.62 1550.88 L2113.40 1550.88 L2113.40 1548.28 L2122.31 1548.28 L2122.31 1547.05 L2131.22 1547.05 L2131.22 1544.45 L2140.01 1544.45 L2140.01 1541.97 L2148.92 1541.97 L2148.92 1535.54 L2157.71 1535.54 L2157.71 1531.08 L2166.61 1531.08 L2166.61 1527.87 L2175.40 1527.87 L2175.40 1524.03 L2184.31 1524.03 L2184.31 1521.55 L2193.10 1521.55 L2193.10 1516.36 L2202.01 1516.36 L2202.01 1515.12 L2210.79 1515.12 L2210.79 1512.52 L2219.70 1512.52 L2219.70 1508.81 L2228.61 1508.81 L2228.61 1508.06 L2237.40 1508.06 L2237.40 1506.21 L2246.31 1506.21 L2246.31 1503.61 L2255.10 1503.61 L2255.10 1500.52 L2264.01 1500.52 L2264.01 1495.94 L2272.79 1495.94 L2272.79 1492.84 L2281.70 1492.84 L2281.70 1488.39 L2290.49 1488.39 L2290.49 1485.17 L2299.40 1485.17 L2299.40 1483.19 L2308.19 1483.19 L2308.19 1478.12 L2317.09 1478.12 L2317.09 1474.90 L2326.01 1474.90 L2326.01 1471.06 L2334.79 1471.06 L2334.79 1470.44 L2343.70 1470.44 L2343.70 1464.75 L2352.49 1464.75 L2352.49 1459.68 L2361.40 1459.68 L2361.40 1455.84 L2370.18 1455.84 L2370.18 1450.64 L2379.09 1450.64 L2379.09 1446.19 L2387.88 1446.19 L2387.88 1442.35 L2396.79 1442.35 L2396.79 1438.51 L2405.58 1438.51 L2405.58 1433.44 L2414.49 1433.44 L2414.49 1431.58 L2423.40 1431.58 L2423.40 1429.60 L2432.18 1429.60 L2432.18 1425.77 L2441.09 1425.77 L2441.09 1423.29 L2449.88 1423.29 L2449.88 1421.93 L2458.79 1421.93 L2458.79 1416.86 L2467.57 1416.86 L2467.57 1413.64 L2476.49 1413.64 L2476.49 1409.80 L2485.27 1409.80 L2485.27 1408.57 L2494.18 1408.57 L2494.18 1406.09 L2502.97 1406.09 L2502.97 1400.89 L2511.88 1400.89 L2511.88 1398.42 L2520.79 1398.42 L2520.79 1396.44 L2529.57 1396.44 L2529.57 1394.58 L2538.48 1394.58 L2538.48 1391.36 L2547.27 1391.36 L2547.27 1388.15 L2556.18 1388.15 L2556.18 1387.53 L2564.97 1387.53 L2564.97 1384.31 L2573.88 1384.31 L2573.88 1379.86 L2582.66 1379.86 L2582.66 1376.64 L2591.57 1376.64 L2591.57 1372.80 L2600.36 1372.80 L2600.36 1367.73 L2609.27 1367.73 L2609.27 1365.25 L2618.18 1365.25 L2618.18 1361.42 L2626.97 1361.42 L2626.97 1358.82 L2635.88 1358.82 L2635.88 1356.96 L2644.66 1356.96 L2644.66 1350.53 L2653.57 1350.53 L2653.57 1348.67 L2662.36 1348.67 L2662.36 1344.09 L2671.27 1344.09 L2671.27 1340.38 L2680.05 1340.38 L2680.05 1335.18 L2688.96 1335.18 L2688.96 1332.71 L2697.75 1332.71 L2697.75 1329.49 L2706.66 1329.49 L2706.66 1327.51 L2715.57 1327.51 L2715.57 1323.67 L2724.36 1323.67 L2724.36 1320.58 L2733.27 1320.58 L2733.27 1319.22 L2742.05 1319.22 L2742.05 1316.12 L2750.96 1316.12 L2750.96 1310.92 L2759.75 1310.92 L2759.75 1307.83 L2768.66 1307.83 L2768.66 1305.23 L2777.45 1305.23 L2777.45 1302.63 L2786.36 1302.63 L2786.36 1299.54 L2795.14 1299.54 L2795.14 1296.94 L2804.05 1296.94 L2804.05 1295.70 L2812.96 1295.70 L2812.96 1293.72 L2821.75 1293.72 L2821.75 1290.51 L2830.66 1290.51 L2830.66 1287.41 L2839.44 1287.41 L2839.44 1284.19 L2848.35 1284.19 L2848.35 1282.21 L2857.14 1282.21 L2857.14 1280.36 L2866.05 1280.36 L2866.05 1277.76 L2874.84 1277.76 L2874.84 1275.90 L2883.75 1275.90 L2883.75 1273.92 L2892.53 1273.92 L2892.53 1273.30 L2901.44 1273.30 L2901.44 1270.09 L2910.35 1270.09 L2910.35 1267.61 L2919.14 1267.61 L2919.14 1263.16 L2928.05 1263.16 L2928.05 1261.79 L2936.84 1261.79 L2936.84 1258.70 L2945.75 1258.70 L2945.75 1257.34 L2954.53 1257.34 L2954.53 1256.10 L2963.44 1256.10 L2963.44 1251.65 L2972.23 1251.65 L2972.23 1248.43 L2981.14 1248.43 L2981.14 1247.19 L2989.92 1247.19 L2989.92 1245.21 L2998.83 1245.21 L2998.83 1242.74 L3007.74 1242.74 L3007.74 1241.38 L3016.53 1241.38 L3016.53 1238.90 L3025.44 1238.90 L3025.44 1236.30 L3034.23 1236.30 L3034.23 1232.46 L3043.14 1232.46 L3043.14 1228.01 L3051.92 1228.01 L3051.92 1227.39 L3060.83 1227.39 L3060.83 1226.15 L3069.62 1226.15 L3069.62 1219.10 L3078.53 1219.10 L3078.53 1217.86 L3087.32 1217.86 L3087.32 1214.03 L3096.23 1214.03 L3096.23 1211.43 L3105.14 1211.43 L3105.14 1207.59 L3113.92 1207.59 L3113.92 1203.14 L3122.83 1203.14 L3122.83 1200.54 L3131.62 1200.54 L3131.62 1198.68 L3140.53 1198.68 L3140.53 1194.84 L3149.31 1194.84 L3149.31 1191.01 L3158.22 1191.01 L3158.22 1188.53 L3167.01 1188.53 L3167.01 1185.93 L3175.92 1185.93 L3175.92 1184.57 L3184.71 1184.57 L3184.71 1181.97 L3193.62 1181.97 L3193.62 1179.99 L3202.53 1179.99 L3202.53 1175.91 L3211.31 1175.91 L3211.31 1170.34 L3220.22 1170.34 L3220.22 1168.98 L3229.01 1168.98 L3229.01 1164.65 L3237.92 1164.65 L3237.92 1161.68 L3246.71 1161.68 L3246.71 1159.45 L3255.62 1159.45 L3255.62 1155.74 L3264.40 1155.74 L3264.40 1154.99 L3273.31 1154.99 L3273.31 1150.42 L3282.10 1150.42 L3282.10 1144.97 L3291.01 1144.97 L3291.01 1141.13 L3299.79 1141.13 L3299.79 1138.78 L3308.70 1138.78 L3308.70 1136.31 L3317.61 1136.31 L3317.61 1133.83 L3326.40 1133.83 L3326.40 1132.97 L3335.31 1132.97 L3335.31 1132.10 L3344.10 1132.10 L3344.10 1130.24 L3353.01 1130.24 L3353.01 1129.38 L3361.79 1129.38 L3361.79 1127.40 L3370.70 1127.40 L3370.70 1125.54 L3379.49 1125.54 L3379.49 1125.54 L3388.40 1125.54 L3388.40 1123.56 L3397.19 1123.56 L3397.19 1122.57 L3406.10 1122.57 L3406.10 1118.36 L3415.01 1118.36 L3415.01 1117.37 L3423.79 1117.37 L3423.79 1117.37 L3432.70 1117.37 L3432.70 1116.26 L3441.49 1116.26 L3441.49 1116.26 L3450.40 1116.26 L3450.40 1112.92 L3459.18 1112.92 L3459.18 1110.69 L3468.09 1110.69 L3468.09 1108.34 L3476.88 1108.34 L3476.88 1108.34 L3485.79 1108.34 L3485.79 1104.50 L3494.58 1104.50 L3494.58 1100.54 L3503.49 1100.54 L3503.49 1100.54 L3512.40 1100.54 L3512.40 1096.46 L3521.18 1096.46 L3521.18 1096.46 L3530.09 1096.46 L3530.09 1094.97 L3538.88 1094.97 L3538.88 1092.00 L3547.79 1092.00 L3547.79 1084.08 L3556.58 1084.08 L3556.58 1080.87 L3565.49 1080.87 L3565.49 1077.52 L3574.27 1077.52 L3574.27 1075.79 L3583.18 1075.79 L3583.18 1073.94 L3591.97 1073.94 L3591.97 1068.12 L3600.88 1068.12 L3600.88 1066.02 L3609.79 1066.02 L3609.79 1063.79 L3618.57 1063.79 L3618.57 1059.09 L3627.48 1059.09 L3627.48 1054.01 L3636.27 1054.01 L3636.27 1051.04 L3645.18 1051.04 L3645.18 1041.64 L3653.97 1041.64 L3653.97 1041.64 L3662.88 1041.64 L3662.88 1041.64 L3671.66 1041.64 L3671.66 1041.64 L3680.57 1041.64 L3680.57 1037.55 L3689.36 1037.55 L3689.36 1037.55 L3698.27 1037.55 L3698.27 1037.55 L3707.18 1037.55 L3707.18 1031.86 L3715.97 1031.86 L3715.97 1025.55 L3724.88 1025.55 L3724.88 1025.55 L3733.66 1025.55 L3733.66 1009.21 L3742.57 1009.21 L3742.57 1009.21 L3751.36 1009.21 L3751.36 1009.21 L3760.27 1009.21 L3760.27 1009.21 L3769.05 1009.21 L3769.05 1009.21 L3777.96 1009.21 L3777.96 1009.21 L3786.75 1009.21 L3786.75 1009.21 L3795.66 1009.21 L3795.66 1009.21" stroke-linejoin="round" style="fill:none;stroke:#E37E00;stroke-width:8.64"/>
	<path d=" M493.27 2311.35 L493.27 2311.35 L493.27 2311.35 L493.27 2311.35 L493.27 2311.35 L493.27 2311.35 L493.27 2311.35 L493.27 2311.35 L493.27 2311.35 L502.05 2311.35 L502.05 2305.78 L510.96 2305.78 L510.96 2294.40 L519.75 2294.40 L519.75 2288.83 L528.66 2288.83 L528.66 2269.03 L537.57 2269.03 L537.57 2246.38 L546.36 2246.38 L546.36 2226.70 L555.27 2226.70 L555.27 2223.86 L564.05 2223.86 L564.05 2221.01 L572.96 2221.01 L572.96 2212.60 L581.75 2212.60 L581.75 2204.06 L590.66 2204.06 L590.66 2195.64 L599.45 2195.64 L599.45 2181.53 L608.36 2181.53 L608.36 2172.99 L617.14 2172.99 L617.14 2167.30 L626.05 2167.30 L626.05 2153.19 L634.96 2153.19 L634.96 2130.67 L643.75 2130.67 L643.75 2119.41 L652.66 2119.41 L652.66 2105.30 L661.44 2105.30 L661.44 2102.45 L670.35 2102.45 L670.35 2093.92 L679.14 2093.92 L679.14 2088.35 L688.05 2088.35 L688.05 2074.24 L696.84 2074.24 L696.84 2065.70 L705.75 2065.70 L705.75 2057.28 L714.53 2057.28 L714.53 2045.90 L723.44 2045.90 L723.44 2037.48 L732.35 2037.48 L732.35 2028.94 L741.14 2028.94 L741.14 2014.84 L750.05 2014.84 L750.05 2003.58 L758.84 2003.58 L758.84 1992.31 L767.75 1992.31 L767.75 1978.21 L776.53 1978.21 L776.53 1961.25 L785.44 1961.25 L785.44 1952.71 L794.23 1952.71 L794.23 1944.30 L803.14 1944.30 L803.14 1935.76 L811.92 1935.76 L811.92 1921.65 L820.83 1921.65 L820.83 1916.08 L829.62 1916.08 L829.62 1901.97 L838.53 1901.97 L838.53 1890.59 L856.23 1890.59 L856.23 1876.48 L865.14 1876.48 L865.14 1870.91 L873.92 1870.91 L873.92 1862.37 L882.83 1862.37 L882.83 1853.96 L891.62 1853.96 L891.62 1845.42 L900.53 1845.42 L900.53 1831.31 L909.32 1831.31 L909.32 1820.05 L918.23 1820.05 L918.23 1817.20 L927.01 1817.20 L927.01 1814.36 L935.92 1814.36 L935.92 1805.94 L944.83 1805.94 L944.83 1800.25 L953.62 1800.25 L953.62 1791.83 L962.53 1791.83 L962.53 1786.14 L971.31 1786.14 L971.31 1777.72 L980.22 1777.72 L980.22 1766.34 L989.01 1766.34 L989.01 1757.92 L997.92 1757.92 L997.92 1738.12 L1006.71 1738.12 L1006.71 1735.28 L1015.62 1735.28 L1015.62 1732.55 L1024.40 1732.55 L1024.40 1726.86 L1033.31 1726.86 L1033.31 1721.17 L1042.22 1721.17 L1042.22 1718.45 L1051.01 1718.45 L1051.01 1704.21 L1059.92 1704.21 L1059.92 1701.49 L1068.71 1701.49 L1068.71 1687.38 L1077.62 1687.38 L1077.62 1684.54 L1086.40 1684.54 L1086.40 1676.00 L1095.31 1676.00 L1095.31 1670.43 L1104.10 1670.43 L1104.10 1661.89 L1113.01 1661.89 L1113.01 1659.04 L1121.79 1659.04 L1121.79 1644.94 L1130.70 1644.94 L1130.70 1642.09 L1139.61 1642.09 L1139.61 1639.37 L1148.40 1639.37 L1148.40 1627.98 L1157.31 1627.98 L1157.31 1625.26 L1166.10 1625.26 L1166.10 1616.72 L1175.01 1616.72 L1175.01 1613.87 L1183.79 1613.87 L1183.79 1602.61 L1201.49 1602.61 L1201.49 1594.20 L1210.40 1594.20 L1210.40 1585.66 L1219.19 1585.66 L1219.19 1574.40 L1228.10 1574.40 L1228.10 1571.55 L1237.01 1571.55 L1237.01 1560.29 L1245.79 1560.29 L1245.79 1551.75 L1254.70 1551.75 L1254.70 1546.18 L1263.49 1546.18 L1263.49 1534.80 L1272.40 1534.80 L1272.40 1523.53 L1281.18 1523.53 L1281.18 1509.43 L1290.09 1509.43 L1290.09 1506.58 L1298.88 1506.58 L1298.88 1503.73 L1307.79 1503.73 L1307.79 1498.16 L1316.58 1498.16 L1316.58 1495.32 L1325.49 1495.32 L1325.49 1484.06 L1334.40 1484.06 L1334.40 1475.52 L1343.18 1475.52 L1343.18 1472.67 L1352.09 1472.67 L1352.09 1469.95 L1360.88 1469.95 L1360.88 1467.10 L1369.79 1467.10 L1369.79 1464.26 L1378.58 1464.26 L1378.58 1458.56 L1387.49 1458.56 L1387.49 1452.99 L1396.27 1452.99 L1396.27 1444.46 L1405.18 1444.46 L1405.18 1433.19 L1413.97 1433.19 L1413.97 1424.78 L1422.88 1424.78 L1422.88 1419.09 L1431.79 1419.09 L1431.79 1410.55 L1440.57 1410.55 L1440.57 1404.98 L1449.48 1404.98 L1449.48 1390.87 L1458.27 1390.87 L1458.27 1382.33 L1467.18 1382.33 L1467.18 1379.48 L1475.97 1379.48 L1475.97 1362.65 L1484.88 1362.65 L1484.88 1359.81 L1493.66 1359.81 L1493.66 1354.11 L1502.57 1354.11 L1502.57 1351.27 L1511.36 1351.27 L1511.36 1342.85 L1520.27 1342.85 L1520.27 1337.16 L1529.18 1337.16 L1529.18 1314.64 L1546.88 1314.64 L1546.88 1308.94 L1564.57 1308.94 L1564.57 1306.10 L1573.36 1306.10 L1573.36 1303.25 L1582.27 1303.25 L1582.27 1289.14 L1591.05 1289.14 L1591.05 1283.58 L1599.96 1283.58 L1599.96 1277.88 L1608.75 1277.88 L1608.75 1272.19 L1617.66 1272.19 L1617.66 1269.47 L1626.57 1269.47 L1626.57 1266.62 L1635.36 1266.62 L1635.36 1260.93 L1644.27 1260.93 L1644.27 1255.24 L1653.05 1255.24 L1653.05 1252.51 L1661.96 1252.51 L1661.96 1243.97 L1670.75 1243.97 L1670.75 1241.13 L1679.66 1241.13 L1679.66 1235.56 L1688.45 1235.56 L1688.45 1227.02 L1697.36 1227.02 L1697.36 1221.45 L1706.14 1221.45 L1706.14 1218.60 L1715.05 1218.60 L1715.05 1207.34 L1723.96 1207.34 L1723.96 1201.65 L1732.75 1201.65 L1732.75 1198.80 L1750.44 1198.80 L1750.44 1187.54 L1759.35 1187.54 L1759.35 1184.70 L1768.14 1184.70 L1768.14 1179.00 L1777.05 1179.00 L1777.05 1170.59 L1785.84 1170.59 L1785.84 1167.74 L1794.75 1167.74 L1794.75 1153.63 L1803.53 1153.63 L1803.53 1139.53 L1812.44 1139.53 L1812.44 1136.68 L1821.35 1136.68 L1821.35 1133.83 L1839.05 1133.83 L1839.05 1125.42 L1847.84 1125.42 L1847.84 1119.72 L1856.75 1119.72 L1856.75 1108.46 L1865.53 1108.46 L1865.53 1100.05 L1874.44 1100.05 L1874.44 1094.36 L1892.14 1094.36 L1892.14 1083.09 L1900.92 1083.09 L1900.92 1080.25 L1909.83 1080.25 L1909.83 1077.40 L1918.74 1077.40 L1918.74 1066.14 L1936.44 1066.14 L1936.44 1063.29 L1945.23 1063.29 L1945.23 1057.60 L1954.14 1057.60 L1954.14 1054.75 L1962.92 1054.75 L1962.92 1052.03 L1971.83 1052.03 L1971.83 1049.19 L1980.62 1049.19 L1980.62 1046.34 L1989.53 1046.34 L1989.53 1035.08 L1998.32 1035.08 L1998.32 1026.54 L2007.23 1026.54 L2007.23 1023.69 L2016.14 1023.69 L2016.14 1018.12 L2024.92 1018.12 L2024.92 1012.43 L2033.83 1012.43 L2033.83 1009.58 L2042.62 1009.58 L2042.62 1006.86 L2060.31 1006.86 L2060.31 1004.02 L2078.01 1004.02 L2078.01 1001.17 L2086.92 1001.17 L2086.92 995.48 L2095.71 995.48 L2095.71 989.91 L2104.62 989.91 L2104.62 987.06 L2113.40 987.06 L2113.40 984.21 L2131.22 984.21 L2131.22 981.37 L2140.01 981.37 L2140.01 978.52 L2157.71 978.52 L2157.71 975.80 L2166.61 975.80 L2166.61 972.95 L2175.40 972.95 L2175.40 970.11 L2202.01 970.11 L2202.01 967.26 L2219.70 967.26 L2219.70 961.57 L2228.61 961.57 L2228.61 947.46 L2246.31 947.46 L2246.31 944.74 L2255.10 944.74 L2255.10 939.04 L2264.01 939.04 L2264.01 933.35 L2290.49 933.35 L2290.49 930.51 L2299.40 930.51 L2299.40 927.78 L2308.19 927.78 L2308.19 924.94 L2317.09 924.94 L2317.09 913.67 L2326.01 913.67 L2326.01 910.83 L2334.79 910.83 L2334.79 907.98 L2343.70 907.98 L2343.70 905.14 L2352.49 905.14 L2352.49 902.29 L2361.40 902.29 L2361.40 893.87 L2370.18 893.87 L2370.18 891.03 L2387.88 891.03 L2387.88 888.18 L2396.79 888.18 L2396.79 885.34 L2423.40 885.34 L2423.40 879.77 L2432.18 879.77 L2432.18 876.92 L2441.09 876.92 L2441.09 874.07 L2449.88 874.07 L2449.88 868.50 L2458.79 868.50 L2458.79 865.66 L2467.57 865.66 L2467.57 862.81 L2476.49 862.81 L2476.49 859.97 L2485.27 859.97 L2485.27 857.12 L2502.97 857.12 L2502.97 854.27 L2511.88 854.27 L2511.88 848.70 L2520.79 848.70 L2520.79 843.01 L2547.27 843.01 L2547.27 840.17 L2556.18 840.17 L2556.18 837.44 L2564.97 837.44 L2564.97 828.90 L2573.88 828.90 L2573.88 826.06 L2591.57 826.06 L2591.57 823.21 L2609.27 823.21 L2609.27 817.64 L2626.97 817.64 L2626.97 814.80 L2635.88 814.80 L2635.88 811.95 L2653.57 811.95 L2653.57 809.10 L2662.36 809.10 L2662.36 806.38 L2671.27 806.38 L2671.27 803.53 L2680.05 803.53 L2680.05 794.99 L2688.96 794.99 L2688.96 792.15 L2697.75 792.15 L2697.75 789.43 L2706.66 789.43 L2706.66 786.58 L2742.05 786.58 L2742.05 783.73 L2750.96 783.73 L2750.96 780.89 L2759.75 780.89 L2759.75 775.32 L2768.66 775.32 L2768.66 769.63 L2795.14 769.63 L2795.14 763.93 L2804.05 763.93 L2804.05 761.09 L2812.96 761.09 L2812.96 758.36 L2821.75 758.36 L2821.75 755.52 L2830.66 755.52 L2830.66 752.67 L2839.44 752.67 L2839.44 749.82 L2857.14 749.82 L2857.14 746.98 L2874.84 746.98 L2874.84 741.41 L2892.53 741.41 L2892.53 738.56 L2901.44 738.56 L2901.44 735.72 L2910.35 735.72 L2910.35 730.02 L2919.14 730.02 L2919.14 721.61 L2945.75 721.61 L2945.75 718.76 L2954.53 718.76 L2954.53 715.92 L2963.44 715.92 L2963.44 713.19 L2972.23 713.19 L2972.23 710.35 L2981.14 710.35 L2981.14 704.65 L2989.92 704.65 L2989.92 701.81 L3007.74 701.81 L3007.74 698.96 L3016.53 698.96 L3016.53 693.39 L3034.23 693.39 L3034.23 687.70 L3043.14 687.70 L3043.14 676.44 L3051.92 676.44 L3051.92 670.75 L3060.83 670.75 L3060.83 667.90 L3069.62 667.90 L3069.62 665.18 L3078.53 665.18 L3078.53 662.33 L3087.32 662.33 L3087.32 659.48 L3105.14 659.48 L3105.14 656.64 L3122.83 656.64 L3122.83 653.79 L3140.53 653.79 L3140.53 648.22 L3158.22 648.22 L3158.22 645.38 L3167.01 645.38 L3167.01 645.38 L3175.92 645.38 L3175.92 639.68 L3184.71 639.68 L3184.71 633.87 L3193.62 633.87 L3193.62 633.87 L3202.53 633.87 L3202.53 633.87 L3211.31 633.87 L3211.31 633.87 L3220.22 633.87 L3220.22 633.87 L3229.01 633.87 L3229.01 633.87 L3237.92 633.87 L3237.92 627.80 L3246.71 627.80 L3246.71 624.59 L3264.40 624.59 L3264.40 621.37 L3273.31 621.37 L3273.31 618.15 L3282.10 618.15 L3282.10 618.15 L3291.01 618.15 L3291.01 611.34 L3299.79 611.34 L3299.79 604.54 L3308.70 604.54 L3308.70 604.54 L3317.61 604.54 L3317.61 604.54 L3326.40 604.54 L3326.40 600.83 L3335.31 600.83 L3335.31 600.83 L3344.10 600.83 L3344.10 600.83 L3353.01 600.83 L3353.01 596.99 L3361.79 596.99 L3361.79 593.03 L3370.70 593.03 L3370.70 593.03 L3379.49 593.03 L3379.49 589.07 L3388.40 589.07 L3388.40 589.07 L3397.19 589.07 L3397.19 589.07 L3415.01 589.07 L3415.01 589.07 L3432.70 589.07 L3432.70 589.07 L3441.49 589.07 L3441.49 589.07 L3450.40 589.07 L3450.40 578.92 L3459.18 578.92 L3459.18 573.72 L3476.88 573.72 L3476.88 573.72 L3485.79 573.72 L3485.79 573.72 L3494.58 573.72 L3494.58 573.72 L3503.49 573.72 L3503.49 573.72 L3512.40 573.72 L3512.40 573.72 L3521.18 573.72 L3521.18 567.54 L3530.09 567.54 L3530.09 567.54 L3538.88 567.54 L3538.88 567.54 L3547.79 567.54 L3547.79 560.61 L3556.58 560.61 L3556.58 553.55 L3565.49 553.55 L3565.49 546.13 L3574.27 546.13 L3574.27 546.13 L3583.18 546.13 L3583.18 546.13 L3591.97 546.13 L3591.97 546.13 L3618.57 546.13 L3618.57 546.13 L3627.48 546.13 L3627.48 546.13 L3636.27 546.13 L3636.27 530.90 L3645.18 530.90 L3645.18 515.06 L3653.97 515.06 L3653.97 515.06 L3662.88 515.06 L3662.88 515.06 L3671.66 515.06 L3671.66 515.06 L3680.57 515.06 L3680.57 515.06 L3689.36 515.06 L3689.36 483.38 L3698.27 483.38 L3698.27 483.38 L3707.18 483.38 L3707.18 483.38 L3724.88 483.38 L3724.88 483.38 L3733.66 483.38 L3733.66 483.38 L3742.57 483.38 L3742.57 483.38 L3760.27 483.38 L3760.27 483.38 L3769.05 483.38 L3769.05 483.38 L3777.96 483.38 L3777.96 483.38 L3786.75 483.38 L3786.75 483.38" stroke-linejoin="round" style="fill:none;stroke:#6E8E84;stroke-width:8.64"/>
	<line x1="429.91" y1="2374.71" x2="429.91" y2="419.90" style="stroke:#000000;stroke-width:5.76"/>
	<line x1="429.91" y1="2311.35" x2="389.94" y2="2311.35" style="stroke:#000000;stroke-width:5.76"/>
	<text x="370.01" y="2346.38" style="font-family:'Helvetica';font-size:99.99px;fill:#000000" text-anchor="end">0</text>
	<line x1="429.91" y1="1869.67" x2="389.94" y2="1869.67" style="stroke:#000000;stroke-width:5.76"/>
	<text x="370.01" y="1904.70" style="font-family:'Helvetica';font-size:99.99px;fill:#000000" text-anchor="end">20</text>
	<line x1="429.91" y1="1428.00" x2="389.94" y2="1428.00" style="stroke:#000000;stroke-width:5.76"/>
	<text x="370.01" y="1463.02" style="font-family:'Helvetica';font-size:99.99px;fill:#000000" text-anchor="end">40</text>
	<line x1="429.91" y1="986.44" x2="389.94" y2="986.44" style="stroke:#000000;stroke-width:5.76"/>
	<text x="370.01" y="1021.47" style="font-family:'Helvetica';font-size:99.99px;fill:#000000" text-anchor="end">60</text>
	<line x1="429.91" y1="544.76" x2="389.94" y2="544.76" style="stroke:#000000;stroke-width:5.76"/>
	<text x="370.01" y="579.79" style="font-family:'Helvetica';font-size:99.99px;fill:#000000" text-anchor="end">80</text>
	<text x="167.43" y="1417.24" style="font-family:'Helvetica';font-size:99.99px;fill:#000000" text-anchor="middle">%</text>
	<line x1="429.91" y1="2374.71" x2="3859.02" y2="2374.71" style="stroke:#000000;stroke-width:5.76"/>
	<line x1="493.27" y1="2374.71" x2="493.27" y2="2414.69" style="stroke:#000000;stroke-width:5.76"/>
	<text x="493.27" y="2504.54" style="font-family:'Helvetica';font-size:99.99px;fill:#000000" text-anchor="middle">0</text>
	<line x1="1555.79" y1="2374.71" x2="1555.79" y2="2414.69" style="stroke:#000000;stroke-width:5.76"/>
	<text x="1555.79" y="2504.54" style="font-family:'Helvetica';font-size:99.99px;fill:#000000" text-anchor="middle">10</text>
	<line x1="2618.18" y1="2374.71" x2="2618.18" y2="2414.69" style="stroke:#000000;stroke-width:5.76"/>
	<text x="2618.18" y="2504.54" style="font-family:'Helvetica';font-size:99.99px;fill:#000000" text-anchor="middle">20</text>
	<line x1="3680.57" y1="2374.71" x2="3680.57" y2="2414.69" style="stroke:#000000;stroke-width:5.76"/>
	<text x="3680.57" y="2504.54" style="font-family:'Helvetica';font-size:99.99px;fill:#000000" text-anchor="middle">30</text>
	<text x="2144.46" y="2614.56" style="font-family:'Helvetica';font-size:99.99px;fill:#000000" text-anchor="middle">Years</text>
	<rect x="464.56" y="454.42" width="931.96" height="746.48" style="fill:#FFFFFF"/>
	<rect x="467.44" y="457.30" width="926.20" height="740.72" style="fill:none;stroke:#000000;stroke-width:5.76"/>
	<line x1="507.75" y1="547.73" x2="882.09" y2="547.73" style="stroke:#6E8E84;stroke-width:8.64"/>
	<line x1="507.75" y1="687.70" x2="882.09" y2="687.70" style="stroke:#E37E00;stroke-width:8.64"/>
	<line x1="507.75" y1="827.67" x2="882.09" y2="827.67" style="stroke:#55752F;stroke-width:8.64"/>
	<line x1="507.75" y1="967.63" x2="882.09" y2="967.63" style="stroke:#90353B;stroke-width:8.64"/>
	<line x1="507.75" y1="1107.72" x2="882.09" y2="1107.72" style="stroke:#1A476F;stroke-width:8.64"/>
	<text x="942.11" y="582.76" style="font-family:'Helvetica';font-size:99.99px;fill:#000000">Poor</text>
	<text x="942.11" y="722.73" style="font-family:'Helvetica';font-size:99.99px;fill:#000000">Bad</text>
	<text x="942.11" y="862.69" style="font-family:'Helvetica';font-size:99.99px;fill:#000000">Fair</text>
	<text x="942.11" y="1002.66" style="font-family:'Helvetica';font-size:99.99px;fill:#000000">Good</text>
	<text x="942.11" y="1142.75" style="font-family:'Helvetica';font-size:99.99px;fill:#000000">Excellent</text>
	<text x="447.23" y="2737.89" style="font-family:'Helvetica';font-size:79.94px;fill:#000000">Source: RDC/NCHS/CDC/DHHS</text>
	<text x="447.23" y="369.63" style="font-family:'Helvetica';font-size:110.01px;fill:#000000">by self report: Is health in general excellent,...,poor</text>
	<text x="447.23" y="215.98" style="font-family:'Helvetica';font-size:139.96px;fill:#1E2D53">Morality in NHANES III</text>
</svg>
